# xmcd CD database file
#
# Track frame offsets:
#	182
#	9420
#	24422
#	37282
#	49257
#	65287
#	78315
#	88782
#	101550
#	114200
#	127155
#	137565
#
# Disc length: 2088 seconds
#
# Revision: 2
# Processed by: cddbd v1.5.2PL0 Copyright (c) Steve Scherf et al.
# Submitted via: CDex 1.82
#
DISCID=9a08260c
DTITLE=Quartet - Stranka pameti
DYEAR=1993
DGENRE=Bluegrass
TTITLE0=Never snum
TTITLE1=To vim jen ja
TTITLE2=Spalena plan
TTITLE3=Rada svetel
TTITLE4=Hroby lasky a snu - Only a Memory Away
TTITLE5=Posledni plavba - Waiting For The Boys
TTITLE6=Matterhon - Matterhorn
TTITLE7=Paleta snu - Raised By The Railroad Line
TTITLE8=Pod strechou vikyr - You Don't Know My Mind
TTITLE9=Kour voni senem - Carolyn At The Broken Wheels Inn
TTITLE10=Hlava prazdnej dzban
TTITLE11=Stranka pameti
EXTD=YEAR: 1993
EXTT0=
EXTT1=
EXTT2=
EXTT3=
EXTT4=
EXTT5=
EXTT6=
EXTT7=
EXTT8=
EXTT9=
EXTT10=
EXTT11=
PLAYORDER=
